<svg xmlns="http://www.w3.org/2000/svg" width="40" height="40" viewBox="0 0 40 40" fill="none">
<path d="M29.8488 4.16675H27.3185C26.4063 4.16675 25.667 4.85686 25.667 5.70816V14.292C25.667 15.1433 26.4063 15.8334 27.3185 15.8334H29.8488C30.761 15.8334 31.5003 15.1433 31.5003 14.292V5.70816C31.5003 4.85686 30.761 4.16675 29.8488 4.16675Z" fill="#7065F0"/>
<path d="M33.5191 15.818L18.9801 1.27764C18.5869 0.886389 18.0548 0.666748 17.5001 0.666748C16.9454 0.666748 16.4133 0.886389 16.0201 1.27764L1.48138 15.818C0.594182 16.8047 0.071421 18.0653 0 19.3903V21.9515C7.94302 27.8611 17.5832 31.0453 27.4834 31.0294C30.0012 31.0299 32.5149 30.8252 34.9995 30.4175V19.3903C34.9273 18.0657 34.4051 16.8054 33.5191 15.818Z" fill="#7065F0"/>
<path d="M27.4838 33.3089C17.5835 33.325 7.94317 30.0597 0 24V38.187C0.00179667 38.7558 0.222897 39.3006 0.615038 39.7026C1.00718 40.1048 1.53851 40.3315 2.09308 40.3333H32.9071C33.4616 40.3315 33.9929 40.1046 34.3851 39.7026C34.7772 39.3004 34.9982 38.7556 35 38.187V32.6814C32.5153 33.0995 30.0016 33.3093 27.4838 33.3089Z" fill="#7065F0"/>
</svg>