<svg xmlns="http://www.w3.org/2000/svg" width="185" height="31" fill="none" viewBox="0 0 185 31">
  <g clip-path="url(#a)">
    <path fill="#7065F0" d="M27.387 3.125h-1.898c-.684 0-1.239.518-1.239 1.156v6.438c0 .638.555 1.156 1.239 1.156h1.898c.684 0 1.238-.518 1.238-1.156V4.28c0-.638-.554-1.156-1.238-1.156Z"/>
    <path fill="#7065F0" d="M30.14 11.863 19.234.958a1.574 1.574 0 0 0-2.22 0L6.111 11.863A4.358 4.358 0 0 0 5 14.543v1.92a34.44 34.44 0 0 0 20.613 6.809c1.888 0 3.773-.153 5.637-.459v-8.27a4.367 4.367 0 0 0-1.11-2.68Z"/>
    <path fill="#7065F0" d="M25.613 24.982C18.188 24.994 10.957 22.545 5 18v10.64c.001.427.167.835.461 1.137.294.302.693.472 1.109.473h23.11a1.556 1.556 0 0 0 1.109-.473c.294-.302.46-.71.461-1.137v-4.129a33.812 33.812 0 0 1-5.637.47Z"/>
  </g>
  <path fill="#7065F0" d="m54.35 9.31-1.74.36c-.34.06-.51.27-.51.63v12.33c0 .36.17.57.51.63l1.74.33V25H46.7v-1.41l1.29-.33c.36-.1.54-.31.54-.63v-5.46h-6.66v5.46c0 .36.17.57.51.63l1.44.33V25h-7.77v-1.41l1.71-.33c.36-.06.54-.27.54-.63V10.3c0-.36-.18-.57-.54-.63l-1.71-.36V7.84h7.77v1.47l-1.47.36c-.32.08-.48.29-.48.63v5.07h6.66V10.3c0-.32-.17-.53-.51-.63l-1.35-.36V7.84h7.68v1.47Zm10.495 9.54c0-1.2-.07-2.19-.21-2.97-.14-.78-.4-1.35-.78-1.71-.36-.38-.86-.57-1.5-.57-.8 0-1.4.37-1.8 1.11-.38.74-.57 2.01-.57 3.81 0 1.22.07 2.22.21 3 .16.78.42 1.36.78 1.74.38.36.89.54 1.53.54.78 0 1.36-.37 1.74-1.11.4-.74.6-2.02.6-3.84Zm-8.55-.03c0-1.62.28-2.92.84-3.9.56-1 1.32-1.72 2.28-2.16.96-.46 2.03-.69 3.21-.69 1.28 0 2.35.25 3.21.75.88.5 1.55 1.23 2.01 2.19.46.96.69 2.15.69 3.57 0 1.64-.28 2.95-.84 3.93-.54.98-1.29 1.69-2.25 2.13-.94.44-2.01.66-3.21.66-1.28 0-2.36-.24-3.24-.72-.88-.5-1.55-1.23-2.01-2.19-.46-.96-.69-2.15-.69-3.57ZM86.513 25v-1.41l.84-.21c.18-.06.31-.13.39-.21.1-.1.15-.25.15-.45v-5.4c0-1.1-.16-1.9-.48-2.4-.32-.5-.86-.75-1.62-.75-.46 0-.94.1-1.44.3-.5.18-.98.48-1.44.9l-.03-1.14c.58-.76 1.27-1.31 2.07-1.65.8-.34 1.64-.51 2.52-.51 1.48 0 2.48.42 3 1.26.54.84.81 2.03.81 3.57v5.82c0 .38.18.6.54.66l1.26.21V25h-6.57Zm-15.54 0v-1.41l1.26-.21c.34-.06.51-.28.51-.66v-7.65c0-.38-.17-.6-.51-.66l-1.38-.24v-1.44c.7-.2 1.44-.35 2.22-.45.78-.1 1.52-.16 2.22-.18l.51.45.36 2.19v7.98c0 .34.16.56.48.66l.9.21V25h-6.57Zm7.98 0v-1.41l.84-.21c.16-.06.29-.13.39-.21.1-.1.15-.25.15-.45v-5.49c0-1.08-.15-1.86-.45-2.34-.28-.48-.8-.72-1.56-.72-.46 0-.96.1-1.5.3-.52.2-.97.5-1.35.9l.03-1.02c.52-.8 1.16-1.38 1.92-1.74a5.94 5.94 0 0 1 2.52-.54c1.48 0 2.48.42 3 1.26.52.82.78 1.98.78 3.48v5.91c0 .34.17.56.51.66l.87.21V25h-6.15Zm16.135-6.18c0-2.16.53-3.82 1.59-4.98 1.06-1.18 2.55-1.77 4.47-1.77 1.6 0 2.8.4 3.6 1.2.8.8 1.2 1.85 1.2 3.15 0 .28-.01.58-.03.9-.02.3-.06.58-.12.84h-8.34v-1.35h5.31c.02-.1.03-.19.03-.27v-.3c0-.78-.16-1.42-.48-1.92-.32-.52-.81-.78-1.47-.78-.7 0-1.26.34-1.68 1.02-.4.68-.6 1.89-.6 3.63 0 1.18.11 2.14.33 2.88.24.72.6 1.25 1.08 1.59.48.34 1.1.51 1.86.51.62 0 1.22-.12 1.8-.36.58-.24 1.06-.6 1.44-1.08l.81.57c-.28.96-.87 1.7-1.77 2.22-.9.52-2 .78-3.3.78-1.32 0-2.4-.27-3.24-.81-.84-.54-1.47-1.29-1.89-2.25-.4-.98-.6-2.12-.6-3.42Zm25.601 1.35c0 .82-.21 1.62-.63 2.4-.42.78-1.09 1.43-2.01 1.95-.92.5-2.14.75-3.66.75-1.14 0-2.2-.13-3.18-.39-.96-.28-1.77-.59-2.43-.93-.04-.76-.04-1.55 0-2.37.06-.84.15-1.59.27-2.25h2.04l.42 2.73c.02.16.06.3.12.42.08.12.19.25.33.39.24.24.58.46 1.02.66.46.2.97.3 1.53.3.84 0 1.48-.22 1.92-.66.46-.44.69-1.04.69-1.8 0-.64-.17-1.18-.51-1.62-.32-.44-.76-.83-1.32-1.17-.54-.34-1.16-.68-1.86-1.02-.76-.38-1.48-.78-2.16-1.2-.68-.42-1.24-.94-1.68-1.56-.42-.64-.63-1.44-.63-2.4 0-1.38.5-2.53 1.5-3.45 1-.92 2.49-1.38 4.47-1.38.86 0 1.71.08 2.55.24.86.16 1.61.38 2.25.66.06.72.06 1.46 0 2.22-.04.74-.11 1.45-.21 2.13h-2.01l-.42-2.4c-.04-.2-.1-.37-.18-.51a.856.856 0 0 0-.3-.36c-.22-.16-.51-.29-.87-.39-.34-.12-.7-.18-1.08-.18-.74 0-1.32.2-1.74.6-.4.4-.6.93-.6 1.59 0 .6.14 1.1.42 1.5.3.4.73.76 1.29 1.08.58.32 1.26.68 2.04 1.08.82.4 1.58.84 2.28 1.32.7.48 1.26 1.05 1.68 1.71.44.64.66 1.41.66 2.31Zm2.11 10.23v-1.38l1.26-.24c.34-.06.51-.27.51-.63V15.07c0-.38-.16-.6-.48-.66l-1.41-.24v-1.44c.68-.18 1.41-.32 2.19-.42.8-.12 1.55-.19 2.25-.21l.51.45.36 1.98v13.62c0 .38.18.59.54.63l1.74.24v1.38h-7.47Zm6.75-5.16c-.34 0-.72-.03-1.14-.09-.4-.04-.78-.13-1.14-.27l.21-1.8c.24.28.54.47.9.57.38.1.78.15 1.2.15.9 0 1.62-.37 2.16-1.11.54-.74.81-2.08.81-4.02.02-1.58-.18-2.72-.6-3.42-.42-.72-1.08-1.08-1.98-1.08-.54 0-1.02.1-1.44.3-.42.18-.73.38-.93.6l-.33-.66c.44-.66.99-1.21 1.65-1.65.68-.46 1.53-.69 2.55-.69.88 0 1.67.22 2.37.66.72.42 1.29 1.07 1.71 1.95.42.88.63 2.01.63 3.39 0 2.32-.6 4.1-1.8 5.34-1.18 1.22-2.79 1.83-4.83 1.83Zm12.529 0c-1.06 0-1.92-.28-2.58-.84-.66-.56-.99-1.32-.99-2.28 0-.82.23-1.49.69-2.01.46-.52 1.06-.91 1.8-1.17.74-.28 1.52-.44 2.34-.48l2.88-.18v1.32l-2.07.18c-.76.02-1.31.21-1.65.57-.32.36-.48.82-.48 1.38 0 .52.11.91.33 1.17.24.26.62.39 1.14.39.52 0 1.02-.11 1.5-.33.5-.24.89-.54 1.17-.9l.3.75c-.4.76-.98 1.36-1.74 1.8-.76.42-1.64.63-2.64.63Zm-3.21-10.23c.34-.92.96-1.63 1.86-2.13.9-.52 2.04-.78 3.42-.78 1.68 0 2.9.39 3.66 1.17.76.78 1.14 1.96 1.14 3.54v5.85c0 .4.2.62.6.66l1.11.15v1.32c-.26.08-.63.17-1.11.27-.46.1-.89.15-1.29.15-.72 0-1.31-.17-1.77-.51-.44-.34-.72-.9-.84-1.68v-6.06c0-.96-.22-1.63-.66-2.01-.42-.38-1.03-.57-1.83-.57-.68 0-1.31.11-1.89.33-.58.2-1.12.53-1.62.99l-.78-.69Zm13.796 3.87c0-1.42.26-2.63.78-3.63.52-1.02 1.24-1.8 2.16-2.34.94-.56 2.04-.84 3.3-.84.76 0 1.51.09 2.25.27.74.18 1.35.4 1.83.66.04.68.03 1.37-.03 2.07-.04.7-.11 1.37-.21 2.01h-1.68l-.57-2.07c-.08-.24-.15-.43-.21-.57-.06-.14-.14-.26-.24-.36a1.73 1.73 0 0 0-.54-.3c-.22-.08-.47-.12-.75-.12-.7 0-1.28.37-1.74 1.11-.46.72-.69 1.91-.69 3.57 0 1.62.25 2.83.75 3.63.52.8 1.32 1.2 2.4 1.2.64 0 1.21-.12 1.71-.36s.89-.5 1.17-.78l.78.63c-.28.78-.84 1.42-1.68 1.92-.82.48-1.85.72-3.09.72-1.3 0-2.37-.28-3.21-.84a5.16 5.16 0 0 1-1.89-2.28c-.4-.98-.6-2.08-.6-3.3Zm12.922-.06c0-2.16.53-3.82 1.59-4.98 1.06-1.18 2.55-1.77 4.47-1.77 1.6 0 2.8.4 3.6 1.2.8.8 1.2 1.85 1.2 3.15 0 .28-.01.58-.03.9-.02.3-.06.58-.12.84h-8.34v-1.35h5.31c.02-.1.03-.19.03-.27v-.3c0-.78-.16-1.42-.48-1.92-.32-.52-.81-.78-1.47-.78-.7 0-1.26.34-1.68 1.02-.4.68-.6 1.89-.6 3.63 0 1.18.11 2.14.33 2.88.24.72.6 1.25 1.08 1.59.48.34 1.1.51 1.86.51.62 0 1.22-.12 1.8-.36.58-.24 1.06-.6 1.44-1.08l.81.57c-.28.96-.87 1.7-1.77 2.22-.9.52-2 .78-3.3.78-1.32 0-2.4-.27-3.24-.81-.84-.54-1.47-1.29-1.89-2.25-.4-.98-.6-2.12-.6-3.42Z"/>
  <defs>
    <clipPath id="a">
      <path fill="#fff" d="M5 0h30v30H5z"/>
    </clipPath>
  </defs>
</svg>